<?xml version="1.0" encoding="utf-8"?>
<!-- Generator: Adobe Illustrator 22.1.0, SVG Export Plug-In . SVG Version: 6.00 Build 0)  -->
<svg version="1.1" id="Layer_1" xmlns="http://www.w3.org/2000/svg" xmlns:xlink="http://www.w3.org/1999/xlink" x="0px" y="0px"
	 viewBox="0 0 764 257" style="enable-background:new 0 0 764 257;" xml:space="preserve">
<style type="text/css">
	.st0{display:none;}
	.st1{display:inline;}
	.st2{fill:#FFFFFF;}
	.st3{display:inline;fill:#FFFFFF;}
	.st4{fill:#32BBFF;}
	.st5{fill:#2C9FD9;}
	.st6{fill:#29CC5E;}
	.st7{fill:#D93F21;}
	.st8{fill:#FFD500;}
	.st9{fill:#FFAA00;}
</style>
<path d="M706.4,240H62.6C41.9,240,25,223.1,25,202.4V67.6C25,46.9,41.9,30,62.6,30h643.8c20.7,0,37.6,16.9,37.6,37.6v134.8
	C744,223.1,727.1,240,706.4,240z"/>
<g class="st0">
	<g class="st1">
		<path class="st2" d="M166.8,59.7c-8.1,0.6-17.5,5.7-22.9,12.4c-5,6.1-9.1,15.1-7.5,23.9c8.8,0.3,17.9-5,23.2-11.8
			C164.4,77.8,168.2,68.8,166.8,59.7z"/>
	</g>
</g>
<g class="st0">
	<g class="st1">
		<path class="st2" d="M198.6,110.3C190.9,100.6,180,95,169.8,95c-13.5,0-19.3,6.5-28.7,6.5c-9.7,0-17.1-6.5-28.8-6.5
			c-11.5,0-23.8,7-31.5,19.1c-10.9,16.9-9.1,48.8,8.6,75.9c6.3,9.7,14.8,20.6,25.9,20.7c9.8,0.1,12.6-6.3,26-6.4
			c13.3-0.1,15.9,6.5,25.7,6.4c11.1-0.1,20-12.2,26.3-21.9c4.5-7,6.2-10.5,9.8-18.3C177.4,160.7,173.3,124.3,198.6,110.3z"/>
	</g>
</g>
<g class="st0">
	<path class="st3" d="M241,67.5h13.3c10,0,21,6.7,21,20c0,13.3-11,20-21,20H241V67.5z M245,103.7h7.9c12.2,0,17.9-8,17.9-16.3
		c0-8.2-5.7-16.3-17.9-16.3H245V103.7z"/>
	<path class="st3" d="M294.7,108.1c-8.2,0-14-5.9-14-13.9s5.8-13.9,14-13.9c8.2,0,14.1,5.9,14.1,13.9S302.9,108.1,294.7,108.1z
		 M294.7,83.8c-6.1,0-9.9,4.6-9.9,10.5c0,5.9,3.8,10.5,9.9,10.5c6.2,0,10-4.6,10-10.5C304.7,88.3,300.8,83.8,294.7,83.8z"/>
	<path class="st3" d="M316.6,81l6.1,21.5h0.1l7.1-21.5h3.8l7.1,21.5h0.1L347,81h4.4l-8.4,26.4h-4.2l-7-21.7h-0.1l-7,21.7h-4.2
		L312.2,81H316.6z"/>
	<path class="st3" d="M359.8,81c0.2,1.4,0.2,2.8,0.2,4.2h0.1c1.6-2.9,5.4-4.9,8.9-4.9c6.7,0,9.9,3.8,9.9,10.3v16.8h-3.7V92.8
		c0-5.9-1.6-9.1-7.2-9.1c-0.8,0-8,0.5-8,10.2v13.5h-3.7V86.9c0-1.4-0.2-3.9-0.3-5.8H359.8z"/>
	<path class="st3" d="M392.2,107.5h-3.7V64.8h3.7V107.5z"/>
	<path class="st3" d="M413.8,108.1c-8.2,0-14-5.9-14-13.9s5.8-13.9,14-13.9c8.2,0,14.1,5.9,14.1,13.9S422.1,108.1,413.8,108.1z
		 M413.8,83.8c-6.1,0-9.9,4.6-9.9,10.5c0,5.9,3.8,10.5,9.9,10.5c6.2,0,10-4.6,10-10.5C423.8,88.3,420,83.8,413.8,83.8z"/>
	<path class="st3" d="M451.6,91.3v-0.7c0-4.6-2.2-6.8-6.8-6.8c-3.1,0-5.8,1.1-8.1,3.1l-2.3-2.7c2.4-2.5,6.2-3.8,11.2-3.8
		c5.2,0,9.7,2.9,9.7,9.4v11.8c0,2,0.2,4.5,0.5,5.9h-3.6c-0.2-1.3-0.3-2.9-0.3-4.3h-0.1c-2.1,3.5-5.1,5-9.3,5c-4.7,0-9.1-2.6-9.1-7.7
		c0-8.6,10.1-9.1,16.4-9.1H451.6z M449.7,94.3c-3.8,0-12.3,0.3-12.3,5.6c0,3.5,3.2,4.9,6.2,4.9c5.4,0,8-3.8,8-8.5v-1.9H449.7z"/>
	<path class="st3" d="M490.3,107.5h-3.7v-4.4h-0.1c-2.4,3.6-6.8,5.1-10.3,5.1c-8.2,0-14.1-5.9-14.1-13.9s5.8-13.9,14.1-13.9
		c3.5,0,7.8,1.5,10.3,5.1h0.1V64.8h3.7V107.5z M476.2,104.8c6.1,0,10.6-4.6,10.6-10.5c0-5.9-4.5-10.5-10.6-10.5
		c-6.2,0-10,4.6-10,10.5C466.2,100.2,470.1,104.8,476.2,104.8z"/>
	<path class="st3" d="M526.8,108.1c-8.2,0-14-5.9-14-13.9s5.8-13.9,14-13.9c8.2,0,14.1,5.9,14.1,13.9S535,108.1,526.8,108.1z
		 M526.8,83.8c-6.1,0-9.9,4.6-9.9,10.5c0,5.9,3.8,10.5,9.9,10.5c6.2,0,10-4.6,10-10.5C536.8,88.3,533,83.8,526.8,83.8z"/>
	<path class="st3" d="M551.2,81c0.2,1.4,0.2,2.8,0.2,4.2h0.1c1.6-2.9,5.4-4.9,8.9-4.9c6.7,0,9.9,3.8,9.9,10.3v16.8h-3.7V92.8
		c0-5.9-1.6-9.1-7.2-9.1c-0.8,0-8,0.5-8,10.2v13.5h-3.7V86.9c0-1.4-0.2-3.9-0.3-5.8H551.2z"/>
	<path class="st3" d="M608.4,84.4h-7.6V100c0,4,1.5,4.7,3.8,4.7c1.3,0,2.7-0.4,3.8-1l0.2,3.4c-1.4,0.6-3.2,1-5,1
		c-2.8,0-6.5-1.2-6.5-7.1V84.4h-5.6V81h5.6v-7.5h3.7V81h7.6V84.4z"/>
	<path class="st3" d="M613.5,64.8h3.7v20.5h0.1c1.6-2.9,5.4-4.9,8.9-4.9c6.7,0,9.9,3.8,9.9,10.3v16.8h-3.7V92.8
		c0-5.9-1.6-9.1-7.2-9.1c-0.8,0-8,0.5-8,10.2v13.5h-3.7V64.8z"/>
	<path class="st3" d="M647.4,95.3c0.5,5.3,4.5,9.5,9.7,9.5c4,0,7-2.2,8.5-4.6l2.9,2.4c-3.1,4-7,5.6-11.3,5.6
		c-7.8,0-13.7-5.9-13.7-13.9s5.8-13.9,13.3-13.9c8,0.1,12.6,6,12.6,13.2v1.7H647.4z M665.4,92.2c0-5-3.2-8.5-8.6-8.5
		c-4.9,0-9.3,4.1-9.3,8.5H665.4z"/>
</g>
<g class="st0">
	<g class="st1">
		<path class="st2" d="M261.3,121.6h8.3l28.8,67.2h-10.6l-6.7-16.6h-32l-6.6,16.6h-10.6L261.3,121.6z M277.6,164.2l-12.5-30.8h-0.2
			l-12.7,30.8H277.6z"/>
		<path class="st2" d="M304.9,143.8h8.5v6.5h0.2c3.3-4.8,9.6-7.6,15.7-7.6c13.9,0,22.9,10.3,22.9,23.6c0,13.5-9,23.6-22.9,23.6
			c-6.5,0-12.6-2.9-15.7-7.6h-0.2v33.2h-8.5V143.8z M313.4,166.3c0,9.1,5.7,15.7,14.8,15.7c9.1,0,14.8-6.5,14.8-15.7
			c0-9.1-5.7-15.7-14.8-15.7C319.1,150.6,313.4,157.2,313.4,166.3z"/>
		<path class="st2" d="M362.8,143.8h8.5v6.5h0.2c3.3-4.8,9.6-7.6,15.7-7.6c14,0,22.9,10.3,22.9,23.6c0,13.5-9,23.6-22.9,23.6
			c-6.5,0-12.6-2.9-15.7-7.6h-0.2v33.2h-8.5V143.8z M371.4,166.3c0,9.1,5.7,15.7,14.8,15.7c9.1,0,14.8-6.5,14.8-15.7
			c0-9.1-5.7-15.7-14.8-15.7C377.1,150.6,371.4,157.2,371.4,166.3z"/>
		<path class="st2" d="M451.4,174.7c3.2,4.9,8.8,7.2,14.2,7.2c6,0,13.4-3.8,13.4-11.2c0-15.5-33.1-5.9-33.1-32.1
			c0-7.9,6.6-18.8,22.8-18.8c7.3,0,14.3,1.5,19.4,7.7l-7.4,6.7c-2.3-3.5-6.7-5.9-12-5.9c-10.1,0-13.1,6.1-13.1,10.2
			c0,17,33.1,6.8,33.1,31c0,13-10.4,20.8-23.3,20.8c-8.6,0-16.9-2.9-21.4-9.3L451.4,174.7z"/>
		<path class="st2" d="M524.1,151.2h-12.2v20.4c0,5,0,10.3,6.5,10.3c2,0,4.4-0.3,6.1-1.3v7.8c-2,1.1-6,1.5-7.7,1.5
			c-13.2,0-13.4-8.1-13.4-15.3v-23.4h-9.9v-7.4h9.9v-12.6h8.5v12.6h12.2V151.2z"/>
		<path class="st2" d="M556.8,142.6c13.4,0,23.9,10.5,23.9,23.6c0,13.1-10.5,23.6-23.9,23.6s-23.9-10.5-23.9-23.6
			C532.9,153.2,543.4,142.6,556.8,142.6z M556.8,181.9c9.1,0,14.8-6.5,14.8-15.7c0-9.1-5.7-15.7-14.8-15.7
			c-9.1,0-14.8,6.5-14.8,15.7C542,175.4,547.7,181.9,556.8,181.9z"/>
		<path class="st2" d="M591.4,143.8h8.5v6.9h0.2c2.2-4.7,7.9-8.1,13.5-8.1c1.3,0,2.7,0.2,3.8,0.6l-0.4,9.2c-1.4-0.4-2.8-0.7-4.2-0.7
			c-8.4,0-12.9,4.6-12.9,14.4v22.6h-8.5V143.8z"/>
		<path class="st2" d="M631.3,169.4c0,7.9,7.3,13.1,15.2,13.1c5.2,0,9-2.7,12.3-6.7l6.5,4.9c-4.7,6.2-11.3,9.2-19.9,9.2
			c-14.2,0-23.2-10.2-23.2-23.6c0-13.5,9.8-23.6,23.2-23.6c15.8,0,21.9,12.1,21.9,23.7v3H631.3z M658.3,162.6
			c-0.2-7.5-4.4-13.1-13-13.1c-8.4,0-14,7.1-14,13.1H658.3z"/>
	</g>
</g>
<g>
	<path class="st4" d="M159,126.8c-14.2-7.9-36.9-20.7-72.2-40.4c-2.4-1.6-5.1-1.8-7.5-1l60.5,60.5L159,126.8z"/>
	<path class="st4" d="M79.4,85.5c-0.4,0.2-0.9,0.3-1.3,0.5c-2.6,1.4-4.5,4.1-4.5,7.6v104.8c0,3.4,1.9,6.2,4.5,7.6
		c0.4,0.2,0.8,0.4,1.3,0.6l60.5-60.5L79.4,85.5z"/>
	<path class="st4" d="M139.9,146l-60.5,60.5c2.4,0.8,5.1,0.6,7.5-1c34.2-19.2,56.7-31.7,71-39.7c0.4-0.2,0.8-0.4,1.2-0.7L139.9,146z
		"/>
</g>
<path class="st5" d="M73.5,146v52.4c0,3.4,1.9,6.2,4.5,7.6c0.4,0.2,0.8,0.4,1.3,0.6l60.5-60.5H73.5z"/>
<path class="st6" d="M86.8,86.4c-2.8-1.9-6.2-1.8-8.8-0.4l60.9,60.9l20.1-20.1C144.9,118.9,122.1,106.2,86.8,86.4z"/>
<path class="st7" d="M139,145.1L78.1,206c2.6,1.4,5.9,1.5,8.8-0.4c34.2-19.2,56.7-31.7,71-39.7c0.4-0.2,0.8-0.4,1.2-0.7L139,145.1z"
	/>
<path class="st8" d="M184.3,146c0-2.9-1.5-5.8-4.4-7.5c0,0-5.4-3-22.1-12.3L138.1,146l19.8,19.8c16.5-9.2,22.1-12.4,22.1-12.4
	C182.9,151.8,184.3,148.9,184.3,146z"/>
<path class="st9" d="M180,153.5c2.9-1.6,4.4-4.6,4.4-7.5h-46.3l19.8,19.8C174.4,156.6,180,153.5,180,153.5z"/>
<g>
	<path class="st2" d="M243.8,66.3c-2.2-2.3-5.2-3.7-9.1-3.7c-8.2,0-13,6.4-13,13.7c0,7.3,4.9,13.7,13,13.7c3.3,0,6.4-0.9,8.8-2.2
		V77.2h-7.6v-3h10.8v15.6c-3.5,2.1-8.2,3.2-12,3.2c-9.5,0-16.5-7-16.5-16.7c0-9.6,7.1-16.7,16.5-16.7c5,0,8.7,1.4,11.5,4.3
		L243.8,66.3z"/>
	<path class="st2" d="M258.4,89.3h17v3h-20.2V60.5h19.7v3h-16.5v10.8h15.4v3h-15.4V89.3z"/>
	<path class="st2" d="M291.9,92.2h-3.2V63.4h-10.6v-3h24.5v3h-10.6V92.2z"/>
	<path class="st2" d="M323.2,92.2H320V60.5h3.2V92.2z"/>
	<path class="st2" d="M342,92.2h-3.2V63.4h-10.6v-3h24.5v3H342V92.2z"/>
	<path class="st2" d="M384.4,93c-9.5,0-16.5-7-16.5-16.7c0-9.6,7.1-16.7,16.5-16.7c9.5,0,16.5,7,16.5,16.7
		C400.9,86,393.8,93,384.4,93z M384.4,62.6c-8.2,0-13,6.4-13,13.7c0,7.3,4.9,13.7,13,13.7c8.2,0,13-6.4,13-13.7
		C397.4,69,392.5,62.6,384.4,62.6z"/>
	<path class="st2" d="M430.3,87.4L430.3,87.4l0.1-26.9h3.2v31.7h-4L410.7,65h-0.1v27.2h-3.2V60.5h4L430.3,87.4z"/>
</g>
<g>
	<path class="st2" d="M272.4,144.5v31.4c-6.2,3.8-16.4,5.8-24.1,5.8c-21.6,0-34.1-15.4-34.1-33.5c0-18.9,13.8-33.5,33.2-33.5
		c11.7,0,18.8,3.1,23.7,8.3l-6.1,6.6c-5.2-5-11.2-6.7-17.6-6.7c-14.6,0-24,11.4-24,25.4c0,14.4,10.7,25.4,24.7,25.4
		c6,0,11.8-1.2,15.7-3.3v-17.7h-14.1v-8.1H272.4z"/>
	<path class="st2" d="M306.7,136.4c12.7,0,22.7,10,22.7,22.4s-10,22.4-22.7,22.4s-22.7-10-22.7-22.4S294,136.4,306.7,136.4z
		 M306.7,173.6c8.6,0,14-6.2,14-14.8c0-8.6-5.4-14.8-14-14.8s-14,6.2-14,14.8C292.7,167.4,298.1,173.6,306.7,173.6z"/>
	<path class="st2" d="M360.1,136.4c12.7,0,22.7,10,22.7,22.4s-10,22.4-22.7,22.4s-22.7-10-22.7-22.4S347.4,136.4,360.1,136.4z
		 M360.1,173.6c8.6,0,14-6.2,14-14.8c0-8.6-5.4-14.8-14-14.8s-14,6.2-14,14.8C346.1,167.4,351.5,173.6,360.1,173.6z"/>
	<path class="st2" d="M435.7,179.7c0,12.9-9.4,21.9-23.3,21.9c-8.1,0-14.8-2.1-20.9-7.6l5.5-6.8c4.2,4.5,9,6.9,15.2,6.9
		c12.1,0,15.4-7.6,15.4-14.8v-6.3h-0.3c-3.1,5.1-8.9,7.6-14.8,7.6c-12.5,0-21.8-9.4-21.7-21.9c0-12.6,8.5-22.4,21.7-22.4
		c5.8,0,11.7,2.6,14.8,7.2h0.2v-6.1h8.1V179.7z M399.5,158.8c0,8.6,5.4,14.3,14,14.3c8.6,0,14-5.7,14-14.3c0-8.6-5.4-14.8-14-14.8
		C404.9,143.9,399.5,150.1,399.5,158.8z"/>
	<path class="st2" d="M448.6,112.1h8.1v68h-8.1V112.1z"/>
	<path class="st2" d="M475.6,161.7c0,7.5,6.9,12.4,14.4,12.4c4.9,0,8.5-2.5,11.7-6.4l6.1,4.7c-4.5,5.8-10.7,8.7-18.9,8.7
		c-13.5,0-21.9-9.7-21.9-22.4c0-12.8,9.3-22.4,22-22.4c15,0,20.8,11.5,20.8,22.5v2.9H475.6z M501.2,155.3
		c-0.2-7.1-4.1-12.4-12.3-12.4c-8,0-13.2,6.7-13.2,12.4H501.2z"/>
	<path class="st2" d="M546.6,116.4H569c16.3,0,20.4,9.8,20.4,17.8c0,8-4.1,17.8-20.4,17.8h-13.8v28.1h-8.6V116.4z M555.2,144.5h11.3
		c6.8,0,13.7-1.6,13.7-10.3c0-8.6-6.8-10.3-13.7-10.3h-11.3V144.5z"/>
	<path class="st2" d="M598.5,112.1h8.1v68h-8.1V112.1z"/>
	<path class="st2" d="M619.6,142.7c4.5-4.2,11-6.3,16.9-6.3c12.6,0,17.8,6.8,17.8,14.2v21.8c0,3,0.1,5.5,0.4,7.7h-7.2
		c-0.2-2.2-0.3-4.3-0.3-6.5h-0.2c-3.6,5.5-8.5,7.6-14.9,7.6c-7.9,0-14.8-4.5-14.8-12.8c0-11,10.5-14.8,23.5-14.8h5.9v-1.8
		c0-4.4-3.2-9-10.2-9c-6.2,0-9.2,2.6-12.1,4.9L619.6,142.7z M642.5,159.6c-7.6,0-17,1.3-17,8.2c0,4.9,3.6,6.9,9.2,6.9
		c9,0,12.1-6.7,12.1-12.4v-2.7H642.5z"/>
	<path class="st2" d="M661,137.4h9.4l12.7,33.3h0.2l12.1-33.3h8.7l-20.2,51.8c-2.9,7.4-5.7,12.4-14.6,12.4c-2.4,0-4.9-0.3-7.2-1.2
		l1-7.4c1.5,0.6,3.2,1,4.9,1c5.1,0,6.7-2.8,8.3-7l2.6-6.7L661,137.4z"/>
</g>
</svg>
